<svg xmlns="http://www.w3.org/2000/svg" width="480" height="360" viewBox="0 0 480 360" fill="none">

  <!-- Ledger / book -->
  <rect x="100" y="80" width="280" height="220" rx="16" fill="#1E293B" stroke="#64748B" stroke-width="2"/>
  <rect x="100" y="80" width="14" height="220" rx="4" fill="#64748B" opacity="0.3"/>
  <!-- Lines on ledger -->
  <line x1="136" y1="136" x2="356" y2="136" stroke="#64748B" stroke-width="2" opacity="0.4" stroke-dasharray="8 6"/>
  <line x1="136" y1="172" x2="356" y2="172" stroke="#64748B" stroke-width="2" opacity="0.4" stroke-dasharray="8 6"/>
  <line x1="136" y1="208" x2="356" y2="208" stroke="#64748B" stroke-width="2" opacity="0.4" stroke-dasharray="8 6"/>
  <line x1="136" y1="244" x2="356" y2="244" stroke="#64748B" stroke-width="2" opacity="0.4" stroke-dasharray="8 6"/>
  <!-- Checkmark circle -->
  <circle cx="240" cy="176" r="72" fill="#0F172A" stroke="#4ADE80" stroke-width="5"/>
  <polyline points="208,178 232,202 274,150" stroke="#4ADE80" stroke-width="14" stroke-linecap="round" stroke-linejoin="round" fill="none"/>
  <!-- Small person icons faded -->
  <circle cx="140" cy="320" r="22" fill="#64748B" opacity="0.25"/>
  <path d="M110,350 Q110,336 140,336 Q170,336 170,350" stroke="#64748B" stroke-width="10" stroke-linecap="round" fill="none" opacity="0.25"/>
  <circle cx="340" cy="320" r="22" fill="#64748B" opacity="0.25"/>
  <path d="M310,350 Q310,336 340,336 Q370,336 370,350" stroke="#64748B" stroke-width="10" stroke-linecap="round" fill="none" opacity="0.25"/>

</svg>